<?xml version="1.0" encoding="UTF-8"?>
<svg version="1.1" xmlns="http://www.w3.org/2000/svg" width="128" height="128">
<path d="M0 0 C42.24 0 84.48 0 128 0 C128 42.24 128 84.48 128 128 C85.76 128 43.52 128 0 128 C0 85.76 0 43.52 0 0 Z " fill="#FBFCFD" transform="translate(0,0)"/>
<path d="M0 0 C-1.43567397 14.55476369 -4.82770865 28.74557889 -8 43 C-11.41059403 41.39464713 -13.61792484 39.59481099 -16.25 36.875 C-16.95640625 36.15054688 -17.6628125 35.42609375 -18.390625 34.6796875 C-19.18726562 33.84824219 -19.18726562 33.84824219 -20 33 C-23.79672864 34.56300399 -26.12281747 36.93509507 -28.95703125 39.8671875 C-29.91458689 40.8451761 -30.87227337 41.82303661 -31.83007812 42.80078125 C-33.32015899 44.334177 -34.80765103 45.86997422 -36.29223633 47.40869141 C-46.8364297 58.30897715 -46.8364297 58.30897715 -53 61 C-53.99 61 -54.98 61 -56 61 C-56 72.55 -56 84.1 -56 96 C-44.78 96 -33.56 96 -22 96 C-22 85.11 -22 74.22 -22 63 C-29.26 63 -36.52 63 -44 63 C-42.35 61.35 -40.7 59.7 -39 58 C-38.37609375 57.24203125 -37.7521875 56.4840625 -37.109375 55.703125 C-32.92549826 52.32503192 -27.09698223 53.79612071 -22 54 C-22 49.38 -22 44.76 -22 40 C-13.05054611 47.62360887 -13.05054611 47.62360887 -12.71911621 50.09159851 C-12.6986322 51.38563347 -12.6986322 51.38563347 -12.67773438 52.70581055 C-12.65851929 53.68410324 -12.6393042 54.66239594 -12.61950684 55.67033386 C-12.61100708 56.73174088 -12.60250732 57.79314789 -12.59375 58.88671875 C-12.58234985 59.97708939 -12.57094971 61.06746002 -12.5592041 62.19087219 C-12.54028283 64.50342924 -12.5272277 66.81604047 -12.51953125 69.12866211 C-12.50017065 72.65640501 -12.43817507 76.18179162 -12.375 79.70898438 C-12.36193464 81.95571533 -12.35143577 84.20246296 -12.34375 86.44921875 C-12.3190564 87.50050461 -12.29436279 88.55179047 -12.2689209 89.63493347 C-12.29625231 94.16142313 -12.52102553 98.22392956 -14.89428711 102.16821289 C-20.37150244 107.50909834 -30.23474052 105.94844901 -37.34765625 105.859375 C-39.16556398 105.85901107 -40.9834736 105.86102031 -42.80137634 105.86529541 C-46.60543119 105.86658832 -50.40832882 105.84366227 -54.2121582 105.80273438 C-59.08392042 105.75162307 -63.95386499 105.75386606 -68.82579899 105.77334213 C-72.57746637 105.78364599 -76.32871701 105.7692098 -80.08032036 105.74695587 C-81.87641993 105.73860176 -83.67256506 105.73709727 -85.46867561 105.74260712 C-87.98011471 105.74589511 -90.4891348 105.71672971 -93.00024414 105.67871094 C-93.73960205 105.68569 -94.47895996 105.69266907 -95.24072266 105.69985962 C-99.14240315 105.60353452 -100.85547162 105.11586534 -103.93748474 102.64508057 C-107.24599515 98.40206877 -107.16679095 94.67625179 -107.20874023 89.51855469 C-107.21852402 88.75882858 -107.2283078 87.99910248 -107.23838806 87.21635437 C-107.26830683 84.70154565 -107.2897183 82.18679 -107.30859375 79.671875 C-107.31516558 78.81179085 -107.3217374 77.9517067 -107.32850838 77.06555939 C-107.36108752 72.51231022 -107.38554118 67.95908431 -107.4050293 63.40576172 C-107.42283665 59.64206826 -107.45764893 55.87912484 -107.50756836 52.11572266 C-107.56783106 47.56694474 -107.59851305 43.01886177 -107.60820198 38.46970367 C-107.61674777 36.73935101 -107.63554446 35.00901648 -107.6649456 33.27889252 C-107.90934545 18.07785537 -107.90934545 18.07785537 -104.70874023 13.42651367 C-100.25443978 9.52939565 -94.63392107 10.13372 -89.0390625 10.31640625 C-87.89335785 10.32631088 -86.7476532 10.33621552 -85.56723022 10.34642029 C-81.91850187 10.38551325 -78.27281444 10.47333548 -74.625 10.5625 C-72.14717895 10.59762 -69.66931061 10.62955778 -67.19140625 10.65820312 C-61.12657183 10.73525875 -55.06350316 10.8522999 -49 11 C-49 11.66 -49 12.32 -49 13 C-48.4225 13.226875 -47.845 13.45375 -47.25 13.6875 C-45 15 -45 15 -41 20 C-45.95 20 -50.9 20 -56 20 C-55.94199219 21.24136719 -55.88398437 22.48273437 -55.82421875 23.76171875 C-55.77730762 25.40360814 -55.73180891 27.04553832 -55.6875 28.6875 C-55.64560547 29.50412109 -55.60371094 30.32074219 -55.56054688 31.16210938 C-55.47222034 35.52544029 -55.53248759 37.39086593 -58.26953125 40.95703125 C-61 43 -61 43 -65 45 C-65 36.75 -65 28.5 -65 20 C-75.89 20 -86.78 20 -98 20 C-98 31.22 -98 42.44 -98 54 C-91.44125 53.9071875 -91.44125 53.9071875 -84.75 53.8125 C-83.39745117 53.80581299 -82.04490234 53.79912598 -80.65136719 53.79223633 C-67.25389081 53.45193653 -58.50205565 49.48371874 -49.27148438 39.93554688 C-48.32660521 38.93640376 -47.38194552 37.93705303 -46.4375 36.9375 C-45.45929697 35.93267037 -44.47948474 34.92940471 -43.49804688 33.92773438 C-37.94577951 28.22540399 -37.94577951 28.22540399 -33 22 C-34.46976464 18.54992089 -36.40918519 16.43506916 -39.125 13.875 C-40.45394723 12.62172237 -41.75547173 11.33714433 -43 10 C-43 9.34 -43 8.68 -43 8 C-19.86089807 3.07647598 -19.86089807 3.07647598 -9.125 1.1875 C-8.42511963 1.0639917 -7.72523926 0.9404834 -7.00415039 0.81323242 C-2.27809462 0 -2.27809462 0 0 0 Z " fill="#4A7DB5" transform="translate(117,10)"/>
<path d="M0 0 C-1.43567397 14.55476369 -4.82770865 28.74557889 -8 43 C-11.41059403 41.39464713 -13.61792484 39.59481099 -16.25 36.875 C-16.95640625 36.15054688 -17.6628125 35.42609375 -18.390625 34.6796875 C-19.18726562 33.84824219 -19.18726562 33.84824219 -20 33 C-23.77866868 34.55441924 -26.05366956 36.89276259 -28.8515625 39.83203125 C-29.79511516 40.80578231 -30.73914142 41.77907464 -31.68359375 42.75195312 C-33.15007759 44.27378978 -34.61231019 45.79910711 -36.06591797 47.33325195 C-44.48632894 56.19207627 -52.32131695 62.75145731 -64.96411133 63.11352539 C-66.50342705 63.11336836 -68.04274892 63.10779593 -69.58203125 63.09765625 C-70.80329964 63.09553383 -70.80329964 63.09553383 -72.04924011 63.09336853 C-74.63703156 63.08779317 -77.22473492 63.07524524 -79.8125 63.0625 C-81.57226437 63.05748181 -83.33203011 63.05291946 -85.09179688 63.04882812 C-89.39456494 63.03783181 -93.69726756 63.02058421 -98 63 C-98 62.67 -98 62.34 -98 62 C-93.05 62 -88.1 62 -83 62 C-83 59.36 -83 56.72 -83 54 C-82.20078125 53.98582031 -81.4015625 53.97164062 -80.578125 53.95703125 C-79.47984375 53.90933594 -78.3815625 53.86164062 -77.25 53.8125 C-75.64898437 53.76029297 -75.64898437 53.76029297 -74.015625 53.70703125 C-62.07044604 52.13376378 -54.34848326 45.31008173 -46.4375 36.9375 C-45.45929697 35.93267037 -44.47948474 34.92940471 -43.49804688 33.92773438 C-37.94577951 28.22540399 -37.94577951 28.22540399 -33 22 C-34.46976464 18.54992089 -36.40918519 16.43506916 -39.125 13.875 C-40.45394723 12.62172237 -41.75547173 11.33714433 -43 10 C-43 9.34 -43 8.68 -43 8 C-19.86089807 3.07647598 -19.86089807 3.07647598 -9.125 1.1875 C-8.42511963 1.0639917 -7.72523926 0.9404834 -7.00415039 0.81323242 C-2.27809462 0 -2.27809462 0 0 0 Z " fill="#4EAD7F" transform="translate(117,10)"/>
<path d="M0 0 C10.89 0 21.78 0 33 0 C33 10.89 33 21.78 33 33 C22.11 33 11.22 33 0 33 C0 22.11 0 11.22 0 0 Z " fill="#FBFCFD" transform="translate(19,73)"/>
<path d="M0 0 C3.36720387 1.39332574 4.9859524 2.9789286 7 6 C3.75728494 5.4409112 2.06942576 4.5867822 0 2 C0 1.34 0 0.68 0 0 Z " fill="#5883AE" transform="translate(69,24)"/>
</svg>
